<svg
  width="197"
  height="197"
  viewBox="0 0 197 197"
  fill="none"
  xmlns="http://www.w3.org/2000/svg"
>
<rect
    x="98.5"
    y="11.3318"
    width="123.274"
    height="123.274"
    rx="20"
    transform="rotate(45 98.5 11.3318)"
    fill="#2F70D5"
  />
<rect
    x="98.5"
    y="11.3318"
    width="123.274"
    height="123.274"
    rx="20"
    transform="rotate(45 98.5 11.3318)"
    fill="#2F70D5"
  />
<path
    d="M94.9644 49.7346C96.9171 47.782 100.083 47.782 102.036 49.7346L164.699 112.398C166.652 114.351 166.652 117.517 164.699 119.469L154.336 129.832C152.384 131.784 149.218 131.784 147.265 129.832L84.6019 67.1683C82.6493 65.2156 82.6493 62.0498 84.6019 60.0972L94.9644 49.7346Z"
    fill="#83C6FF"
  />
<path
    d="M60.0972 84.6019C62.0498 82.6493 65.2156 82.6493 67.1683 84.6019L129.832 147.265C131.784 149.218 131.784 152.384 129.832 154.336L119.469 164.699C117.517 166.652 114.351 166.652 112.398 164.699L49.7346 102.036C47.782 100.083 47.782 96.9171 49.7346 94.9645L60.0972 84.6019Z"
    fill="#83C6FF"
  />
<path
    d="M56.5616 53.2702C60.4669 49.3649 66.7985 49.3649 70.7038 53.2702L143.73 126.296C147.635 130.201 147.635 136.533 143.73 140.438L140.438 143.73C136.533 147.635 130.201 147.635 126.296 143.73L53.2701 70.7038C49.3649 66.7985 49.3649 60.4669 53.2701 56.5617L56.5616 53.2702Z"
    fill="#83C6FF"
  />
<path
    d="M152.447 79.4206C156.352 75.5154 162.683 75.5154 166.589 79.4206L178.597 91.4289C182.502 95.3342 182.502 101.666 178.597 105.571L105.571 178.597C101.666 182.502 95.3341 182.502 91.4289 178.597L79.4206 166.589C75.5154 162.684 75.5154 156.352 79.4206 152.447L152.447 79.4206Z"
    fill="#83C6FF"
  />
<rect
    x="116.44"
    y="29.272"
    width="97.9032"
    height="24.6549"
    rx="5"
    transform="rotate(45 116.44 29.272)"
    fill="#2F70D5"
  />
<rect
    x="116.44"
    y="29.272"
    width="97.9032"
    height="24.6549"
    rx="5"
    transform="rotate(45 116.44 29.272)"
    fill="#2F70D5"
  />
<rect
    x="45.7109"
    y="98.0118"
    width="99.3099"
    height="24.6549"
    rx="5"
    transform="rotate(45 45.7109 98.0118)"
    fill="#2F70D5"
  />
<rect
    x="45.7109"
    y="98.0118"
    width="99.3099"
    height="24.6549"
    rx="5"
    transform="rotate(45 45.7109 98.0118)"
    fill="#2F70D5"
  />
<rect
    x="63.6327"
    y="46.1991"
    width="98.6195"
    height="24.6549"
    rx="5"
    transform="rotate(45 63.6327 46.1991)"
    fill="#2F70D5"
  />
<rect
    x="63.6327"
    y="46.1991"
    width="98.6195"
    height="24.6549"
    rx="5"
    transform="rotate(45 63.6327 46.1991)"
    fill="#2F70D5"
  />
<rect
    x="109.832"
    width="123.274"
    height="7.39646"
    rx="3.69823"
    transform="rotate(45 109.832 0)"
    fill="#83C6FF"
  />
<rect
    x="5.2301"
    y="104.602"
    width="123.274"
    height="7.39646"
    rx="3.69823"
    transform="rotate(45 5.2301 104.602)"
    fill="#83C6FF"
  />
<rect
    x="197"
    y="109.832"
    width="123.274"
    height="7.39646"
    rx="3.69823"
    transform="rotate(135 197 109.832)"
    fill="#83C6FF"
  />
<rect
    x="92.3982"
    y="5.2301"
    width="123.274"
    height="7.39646"
    rx="3.69823"
    transform="rotate(135 92.3982 5.2301)"
    fill="#83C6FF"
  />
</svg>
